<svg width="16" height="16" viewBox="0 0 16 16" fill="none" xmlns="http://www.w3.org/2000/svg">
<path d="M15.463 14.2511L12.5574 11.3455C13.6285 9.96623 14.1337 8.23057 13.97 6.49192C13.8064 4.75326 12.9863 3.14232 11.6767 1.98706C10.3671 0.831802 8.66644 0.219072 6.92096 0.273616C5.17547 0.32816 3.51639 1.04588 2.28147 2.28065C1.04655 3.51542 0.328635 5.17443 0.273886 6.9199C0.219136 8.66538 0.831665 10.3661 1.98677 11.6759C3.14188 12.9856 4.75272 13.8059 6.49136 13.9697C8.22999 14.1335 9.96571 13.6286 11.3451 12.5577L14.2508 15.4632C14.3301 15.5439 14.4247 15.6081 14.5289 15.652C14.6332 15.6959 14.7452 15.7188 14.8583 15.7192C14.9714 15.7197 15.0836 15.6978 15.1882 15.6547C15.2928 15.6116 15.3879 15.5482 15.4679 15.4682C15.5479 15.3882 15.6113 15.2931 15.6544 15.1885C15.6974 15.0839 15.7194 14.9718 15.7189 14.8586C15.7185 14.7455 15.6956 14.6335 15.6517 14.5293C15.6077 14.425 15.5436 14.3305 15.4629 14.2511H15.463ZM2.00014 7.14282C2.00014 6.12566 2.30176 5.13134 2.86687 4.2856C3.43197 3.43986 4.23518 2.78069 5.17491 2.39144C6.11465 2.00219 7.1487 1.90034 8.14632 2.09878C9.14394 2.29722 10.0603 2.78703 10.7795 3.50627C11.4988 4.22551 11.9886 5.14188 12.187 6.1395C12.3855 7.13712 12.2836 8.17117 11.8944 9.11091C11.5051 10.0506 10.846 10.8538 10.0002 11.419C9.15448 11.9841 8.16016 12.2857 7.143 12.2857C5.7795 12.2841 4.47228 11.7418 3.50814 10.7777C2.544 9.81354 2.00167 8.50632 2.00014 7.14282Z" fill="#787878"/>
</svg>
